<svg xmlns="http://www.w3.org/2000/svg" width="220" height="52" viewBox="0 0 220 52" role="img" aria-labelledby="title desc">
  <title id="title">Buy Me a Coffee for ex0 byte</title>
  <desc id="desc">Tokyo Night link button with a cute cat-like ghost spirit and a glowing coffee cup.</desc>
  <defs>
    <linearGradient id="bg" x1="0" y1="0" x2="1" y2="1"><stop stop-color="#24283b"/><stop offset=".58" stop-color="#1a1b26"/><stop offset="1" stop-color="#16161e"/></linearGradient>
    <linearGradient id="rgb" x1="0" y1="0" x2="1" y2="0"><stop stop-color="#ff6090"/><stop offset=".52" stop-color="#7dcfff"/><stop offset="1" stop-color="#9ece6a"/></linearGradient>
    <linearGradient id="spirit" x1="0" y1="0" x2="1" y2="1"><stop stop-color="#fff8ff"/><stop offset=".48" stop-color="#c9edff"/><stop offset="1" stop-color="#e6ddff"/></linearGradient>
    <radialGradient id="halo"><stop stop-color="#7dcfff" stop-opacity=".3"/><stop offset="1" stop-color="#7dcfff" stop-opacity="0"/></radialGradient>
    <filter id="glow" x="-35%" y="-35%" width="170%" height="170%"><feGaussianBlur stdDeviation="1.2" result="blur"/><feMerge><feMergeNode in="blur"/><feMergeNode in="SourceGraphic"/></feMerge></filter>
    <clipPath id="shell"><rect x="1" y="1" width="218" height="50" rx="14"/></clipPath>
  </defs>
  <rect width="220" height="52" rx="15" fill="#0f111a"/>
  <rect x="1" y="1" width="218" height="50" rx="14" fill="url(#bg)" stroke="url(#rgb)" stroke-width="1.5"/>
  <g clip-path="url(#shell)">
    <circle cx="27" cy="26" r="31" fill="url(#halo)"/>
    <path d="M48 2h122l-31 16H40z" fill="#ffffff" opacity=".035"/>
    <path d="M165 8.2l.8 1.8 1.9.8-1.9.8-.8 1.8-.8-1.8-1.8-.8 1.8-.8z" fill="#9ece6a"/>
    <circle cx="177" cy="43" r="1" fill="#ff6090"/>
    <path d="M153 45h25" stroke="#7dcfff" stroke-opacity=".14"/>
  </g>
  <rect x="5.5" y="5.5" width="41" height="41" rx="12" fill="#16161e" fill-opacity=".84" stroke="#7dcfff" stroke-opacity=".46"/>
  <g transform="translate(6 4)" filter="url(#glow)">
    <path d="M8.5 30c-1-5 .1-10.9 3.3-14.1l-.6-5.4 5.8 2.8c2.6-.9 5.3-.9 8 0l5.7-2.8-.6 5.5c3.2 3.2 4 9 2.6 14.2-1 3.9 1.1 7.4-1.7 8.8-2.4 1.3-4-1.9-6.6-.2-2.8 1.9-4.6-1.7-7-0.1-2.9 1.9-4.6-1.6-6.6-1.5-2.1.1-1.4-3.8-2.3-7.2z" fill="url(#spirit)" stroke="#7dcfff" stroke-width=".75"/>
    <path d="M15.5 22.2q1.5-1.2 3 0M23.7 22.2q1.5-1.2 3 0" fill="none" stroke="#1a1b26" stroke-width="1.15" stroke-linecap="round"/>
    <path d="M19.1 27q2 2.1 4.1 0" fill="none" stroke="#1a1b26" stroke-width="1" stroke-linecap="round"/>
    <ellipse cx="13.8" cy="26.6" rx="2" ry=".9" fill="#ff6090" opacity=".42"/><ellipse cx="28.3" cy="26.6" rx="2" ry=".9" fill="#ff6090" opacity=".42"/>
  </g>
  <text x="56" y="23" fill="#c0caf5" font-family="Verdana,Arial,sans-serif" font-size="12.2" font-weight="700">Buy Me a Coffee</text>
  <text x="56" y="39" fill="#7dcfff" font-family="Verdana,Arial,sans-serif" font-size="10.5">ex0_byte</text>
  <g transform="translate(188 13)" filter="url(#glow)">
    <rect width="25" height="26" rx="8" fill="#24283b" stroke="#9ece6a" stroke-opacity=".62"/>
    <path d="M7 11h10.7v6.2c0 2-1.5 3.2-3.4 3.2h-3.8c-2 0-3.5-1.2-3.5-3.2z" fill="none" stroke="#9ece6a" stroke-width="1.4"/>
    <path d="M17.7 12.6h1.1a2.2 2.2 0 1 1 0 4.4h-1.1M9.8 8.8c-1.5-1.5 1.4-2.1.1-3.6M14.5 8.8c-1.5-1.5 1.4-2.1.1-3.6" fill="none" stroke="#ff6090" stroke-width="1.15" stroke-linecap="round"/>
  </g>
</svg>
