<svg xmlns="http://www.w3.org/2000/svg" width="1000" height="292" viewBox="0 0 1000 292" role="img" aria-labelledby="title desc">
  <title id="title">BlackhatShiftey operator stack</title>
  <desc id="desc">A Canticle-style terminal matrix listing runtimes, interfaces, systems, and methods.</desc>
  <defs>
    <linearGradient id="bg" x1="0" y1="0" x2="0" y2="1"><stop stop-color="#1f2028"/><stop offset="1" stop-color="#13131a"/></linearGradient>
    <linearGradient id="spectrum" x1="0" y1="0" x2="1" y2="0"><stop stop-color="#ff6090"/><stop offset=".25" stop-color="#e478d0"/><stop offset=".5" stop-color="#c4a7e7"/><stop offset=".75" stop-color="#7dcfff"/><stop offset="1" stop-color="#73daca"/></linearGradient>
    <pattern id="grid" width="30" height="30" patternUnits="userSpaceOnUse"><path d="M30 0H0V30" fill="none" stroke="#7dcfff" stroke-opacity=".03"/></pattern>
    <pattern id="scan" width="4" height="4" patternUnits="userSpaceOnUse"><path d="M0 .5H1000" stroke="#c0caf5" stroke-opacity=".024"/></pattern>
    <filter id="glow" x="-50%" y="-100%" width="200%" height="300%"><feGaussianBlur stdDeviation="4" result="b"/><feMerge><feMergeNode in="b"/><feMergeNode in="SourceGraphic"/></feMerge></filter>
  </defs>
  <rect width="1000" height="292" rx="8" fill="#0e0e15"/>
  <rect x="1" y="1" width="998" height="290" rx="7" fill="url(#bg)"/>
  <rect x="1" y="1" width="998" height="290" rx="7" fill="url(#grid)"/>
  <rect x="1" y="1" width="998" height="290" rx="7" fill="url(#scan)"/>
  <rect x="1.5" y="1.5" width="997" height="289" rx="7" fill="none" stroke="#3b3d57"/>
  <path d="M1 2H190M810 2H999" stroke="url(#spectrum)" stroke-width="2"/>
  <path d="M20 20V40M20 20H40M980 20H960M980 20V40M20 272V252M20 272H40M980 272H960M980 272V252" fill="none" stroke="#565f89"/>

  <g font-family="Fira Code, JetBrains Mono, Cascadia Mono, Consolas, monospace">
    <text x="42" y="44" fill="#7dcfff" font-size="13" letter-spacing="1.5">╭─ OPERATOR STACK / CAPABILITY MATRIX ─╮</text>
    <circle cx="873" cy="40" r="3" fill="#73daca" filter="url(#glow)"/>
    <text x="886" y="44" fill="#9ece6a" font-size="11" letter-spacing="1">LOADED</text>

    <g transform="translate(42 78)">
      <g>
        <rect width="218" height="70" fill="#1a1b26" stroke="#ff6090" stroke-opacity=".45"/>
        <rect width="5" height="70" fill="#ff6090"/>
        <text x="22" y="27" fill="#ff6090" font-size="10" letter-spacing="1.3">RUNTIME</text>
        <text x="22" y="52" fill="#c0caf5" font-size="14">Python  Bash  Node</text>
      </g>
      <g transform="translate(232)">
        <rect width="218" height="70" fill="#1a1b26" stroke="#c4a7e7" stroke-opacity=".45"/>
        <rect width="5" height="70" fill="#c4a7e7"/>
        <text x="22" y="27" fill="#c4a7e7" font-size="10" letter-spacing="1.3">INTERFACE</text>
        <text x="22" y="52" fill="#c0caf5" font-size="14">JS  TS  React</text>
      </g>
      <g transform="translate(464)">
        <rect width="218" height="70" fill="#1a1b26" stroke="#7dcfff" stroke-opacity=".45"/>
        <rect width="5" height="70" fill="#7dcfff"/>
        <text x="22" y="27" fill="#7dcfff" font-size="10" letter-spacing="1.3">SYSTEMS</text>
        <text x="22" y="52" fill="#c0caf5" font-size="14">Linux  Docker  Actions</text>
      </g>
      <g transform="translate(696)">
        <rect width="220" height="70" fill="#1a1b26" stroke="#73daca" stroke-opacity=".45"/>
        <rect width="5" height="70" fill="#73daca"/>
        <text x="22" y="27" fill="#73daca" font-size="10" letter-spacing="1.3">METHOD</text>
        <text x="22" y="52" fill="#c0caf5" font-size="14">Agents  Security</text>
      </g>
    </g>

    <g transform="translate(42 166)">
      <rect width="916" height="72" fill="#16161e" stroke="#3b3d57"/>
      <text x="18" y="27" fill="#565f89" font-size="10" letter-spacing="1.3">ACTIVE LOADOUT</text>
      <text x="18" y="52" fill="#a9b1d6" font-size="13">agent orchestration  /  automation protocols  /  defensive tooling  /  dashboards  /  documentation</text>
      <g transform="translate(814 18)">
        <rect x="0" y="0" width="7" height="7" fill="#ff6090"/>
        <rect x="13" y="7" width="7" height="7" fill="#e478d0"/>
        <rect x="26" y="14" width="7" height="7" fill="#c4a7e7"/>
        <rect x="39" y="21" width="7" height="7" fill="#7dcfff"/>
        <rect x="52" y="28" width="7" height="7" fill="#73daca" filter="url(#glow)"/>
      </g>
    </g>
    <text x="42" y="266" fill="#565f89" font-size="10" letter-spacing="1">TOOLS ARE SELECTED BY THE PROBLEM; EVIDENCE STAYS ATTACHED TO THE RESULT.</text>
  </g>
</svg>
